<svg version="1.1" id="Layer_1" xmlns="http://www.w3.org/2000/svg" xmlns:xlink="http://www.w3.org/1999/xlink" x="0px" y="0px"
	 width="100%" viewBox="0 0 1879 465" enable-background="new 0 0 1879 465" xml:space="preserve">
<path fill="#FEFEFE" opacity="1.000000" stroke="none" 
	d="
M1.386001,262.293427 
	C1.000000,176.549042 1.042646,91.098007 0.873920,5.647387 
	C0.865494,1.379942 2.003839,0.900315 5.847479,0.902935 
	C171.252487,1.015675 336.657593,1.000000 502.531342,1.000000 
	C503.047974,3.325566 501.036469,3.537823 499.601837,3.968958 
	C474.678192,11.459039 461.824860,29.693680 456.342957,53.759754 
	C451.178345,76.433105 451.923035,99.161522 459.742798,121.229965 
	C466.724091,140.932068 480.552979,153.353851 501.214966,157.742325 
	C511.918152,160.015579 522.651550,160.285675 533.474121,158.414932 
	C550.512634,155.469757 562.525757,145.888016 570.535889,130.872345 
	C573.528076,125.263344 575.733887,119.350235 577.409363,113.214371 
	C578.092712,110.711861 577.493347,109.414215 574.862854,109.044579 
	C565.300415,107.700874 555.711731,106.567963 546.122864,105.440331 
	C543.081543,105.082687 541.640564,106.681786 541.081482,109.655998 
	C540.032166,115.237999 538.468811,120.685326 535.472534,125.600601 
	C528.616089,136.848312 513.596069,138.721771 504.167358,129.565125 
	C495.511139,121.158691 492.788727,110.107491 491.029449,98.885925 
	C488.536346,82.983566 488.806610,67.045692 492.450592,51.254585 
	C493.663757,45.997322 495.752502,41.134140 498.455231,36.509068 
	C502.688141,29.265518 509.006104,25.399771 517.410706,25.784422 
	C525.975037,26.176382 532.053528,30.834072 536.006653,38.245480 
	C538.376099,42.687931 539.760864,47.518497 540.270508,52.534779 
	C540.622375,55.998837 542.145508,57.051334 545.606689,56.278385 
	C554.222839,54.354256 562.801331,52.260353 571.441284,50.448410 
	C574.756226,49.753227 575.834106,48.022820 575.057556,44.723751 
	C570.280518,24.428055 558.414612,10.661324 538.251404,4.436204 
	C536.068481,3.762258 533.572205,3.792907 531.970093,1.395023 
	C667.687561,1.000000 803.375122,1.000000 939.531372,1.000000 
	C939.499023,3.935261 936.859924,3.499544 934.977966,4.022496 
	C920.443420,8.061378 909.175415,16.153034 904.580017,30.942579 
	C898.065735,51.907425 902.442993,71.432266 921.877441,83.905571 
	C929.521667,88.811737 937.861023,92.070656 946.291016,95.239731 
	C953.450378,97.931091 960.797180,100.254929 967.225647,104.594193 
	C971.977295,107.801605 975.411316,111.928108 976.114319,117.841866 
	C977.226013,127.193161 969.665527,134.942978 959.159546,135.267181 
	C946.348389,135.662506 936.867676,128.811508 932.673340,115.258598 
	C930.394287,107.894325 929.582214,108.121269 922.904968,109.092186 
	C916.322205,110.049332 909.699829,110.808899 903.081177,111.551361 
	C896.342773,112.307243 895.879150,112.942375 897.358704,119.363579 
	C901.879761,138.984802 913.671326,151.943542 933.304565,156.867371 
	C951.822571,161.511475 970.268860,161.639908 987.974609,153.131042 
	C1003.078918,145.872284 1010.601929,133.477783 1011.636108,117.045868 
	C1013.090698,93.934700 1003.419373,82.122299 983.385376,72.435356 
	C975.274109,68.513344 966.575562,66.060173 958.140747,62.950264 
	C952.958130,61.039394 947.950562,58.781998 943.345886,55.754700 
	C934.525146,49.955540 932.169312,38.715439 938.009644,30.942057 
	C943.792542,23.245123 956.715820,22.400942 964.420288,29.094173 
	C969.899536,33.854359 972.124939,40.176468 973.618713,46.960976 
	C974.845947,52.535091 974.928772,52.548500 980.563232,51.424736 
	C988.077454,49.926048 995.580505,48.373810 1003.074585,46.773823 
	C1006.932495,45.950161 1007.889648,44.050411 1006.988892,40.360340 
	C1002.401489,21.567055 991.068237,9.283025 972.358948,3.949484 
	C970.486328,3.415654 968.314270,3.555573 966.965149,1.387747 
	C1269.787354,1.000000 1572.574829,1.012375 1875.362183,0.875493 
	C1879.654175,0.873552 1880.098389,2.038788 1880.095581,5.860816 
	C1879.983276,157.671036 1879.978027,309.481384 1880.117065,461.291534 
	C1880.120850,465.432983 1879.177856,466.105408 1875.209839,466.104523 
	C1377.119019,465.994110 879.028137,466.000000 380.468658,466.000000 
	C379.792694,464.707397 380.733337,464.201569 381.646881,463.857422 
	C393.944946,459.224609 400.675568,449.396362 404.665771,437.743805 
	C419.079132,395.652435 433.407898,353.530090 447.251648,311.246124 
	C448.903015,306.202301 448.293091,305.449432 442.898895,305.400055 
	C436.900330,305.345123 430.898834,305.475372 424.902527,305.356598 
	C421.398865,305.287201 419.265472,306.613831 418.279572,310.056274 
	C411.540344,333.587860 402.925262,356.595245 398.556915,380.789032 
	C398.202026,382.754639 397.886444,384.740387 397.049438,386.579590 
	C396.626984,387.507935 396.074951,388.383301 394.871887,388.280457 
	C393.660400,388.176819 393.333527,387.159851 392.994019,386.220886 
	C392.824677,385.752441 392.742096,385.252960 392.677673,384.757050 
	C389.911224,363.457916 382.502350,343.385071 376.313171,322.993805 
	C375.006927,318.690063 373.608368,314.410278 372.405914,310.077454 
	C371.451721,306.639191 369.381805,305.329559 365.836273,305.345978 
	C346.506348,305.435608 327.175629,305.402283 307.845367,305.368164 
	C304.718262,305.362610 302.476044,306.555695 300.658752,309.055023 
	C291.646393,321.449890 281.867371,333.290833 273.765686,346.343231 
	C273.238525,347.192535 272.724518,348.053680 272.144958,348.866516 
	C271.012207,350.455261 270.036438,352.914734 267.717957,352.149872 
	C265.222412,351.326630 266.279816,348.759613 266.450012,346.881409 
	C268.951904,319.270020 266.991638,291.598694 267.614746,263.963409 
	C267.685272,260.836365 266.363373,259.375916 263.178314,259.388428 
	C255.513260,259.418579 247.847702,259.404144 240.182465,259.397186 
	C236.814102,259.394135 235.285019,260.963928 235.398819,264.283173 
	C235.433014,265.280853 235.385513,266.282379 235.385498,267.282227 
	C235.384842,314.941711 235.382050,362.601166 235.388535,410.260651 
	C235.389526,417.534607 235.458267,417.595245 242.537521,417.611267 
	C248.869873,417.625610 255.202530,417.649597 261.534607,417.603027 
	C267.191772,417.561432 267.557648,417.215546 267.600586,411.711914 
	C267.657837,404.380066 267.769073,397.042847 267.561676,389.717041 
	C267.432587,385.158264 269.284821,381.659302 272.260559,378.562225 
	C275.384796,375.310608 277.817657,375.435547 280.341705,379.259460 
	C284.104614,384.960114 287.429260,390.939270 290.975494,396.778778 
	C294.348907,402.333649 297.729736,407.885834 300.984650,413.509644 
	C302.670685,416.422791 304.949188,417.683411 308.324432,417.647736 
	C317.821777,417.547363 327.321198,417.630341 336.819580,417.590912 
	C338.081818,417.585693 339.750641,418.114380 340.444122,416.695740 
	C341.114136,415.325165 339.798279,414.218170 339.078217,413.156342 
	C326.919495,395.226166 315.363037,376.898987 303.290894,358.911713 
	C298.625549,351.960388 299.060516,351.155823 304.636536,344.773712 
	C313.082184,335.107208 322.680786,326.537811 330.902161,316.673340 
	C332.070007,315.272125 333.438599,314.027191 334.864899,312.868744 
	C337.453857,310.766022 339.381226,311.209839 340.640930,314.348541 
	C341.324493,316.051758 341.893188,317.793793 342.472687,319.532318 
	C352.643738,350.043457 362.829529,380.549713 372.969147,411.071320 
	C374.038971,414.291656 374.910248,417.469513 379.119812,418.011353 
	C381.428802,418.308502 381.960754,420.178314 381.380432,422.201324 
	C379.633087,428.292572 377.913025,434.440643 373.752319,439.435211 
	C369.880280,444.083252 365.275726,444.735626 360.667419,440.877411 
	C357.622345,438.328003 355.532928,438.727020 353.050751,441.376343 
	C349.862213,444.779541 346.470367,447.990936 343.194641,451.313873 
	C340.739410,453.804504 341.225189,455.815308 343.719757,458.020508 
	C347.129608,461.034790 351.814728,461.946625 355.024231,465.589905 
	C238.430038,466.000000 121.860069,465.981903 5.290202,466.087616 
	C1.805461,466.090759 0.880857,465.522003 0.891233,461.796875 
	C1.048013,405.510681 1.000000,349.223938 1.000000,292.468658 
	C3.087824,290.173767 5.658640,290.421051 8.134791,290.409088 
	C17.295719,290.364868 26.457180,290.345123 35.617920,290.408020 
	C43.507957,290.462189 44.572929,291.476746 44.585629,299.371490 
	C44.643234,335.182983 44.593567,370.994598 44.617447,406.806152 
	C44.624825,417.867584 43.818077,417.376831 55.237366,417.388489 
	C59.401497,417.392731 63.565639,417.390594 67.729774,417.388916 
	C77.384018,417.385010 77.387741,417.384399 77.388596,407.973633 
	C77.390770,383.988220 77.388901,360.002777 77.389511,336.017365 
	C77.389809,324.191223 77.366989,312.364990 77.397682,300.538940 
	C77.422050,291.150391 78.164352,290.431946 87.725899,290.395905 
	C96.220650,290.363892 104.716156,290.456757 113.210159,290.359894 
	C118.730179,290.296936 119.276642,289.739960 119.364372,284.383972 
	C119.448936,279.221741 119.281845,274.054138 119.412651,268.894836 
	C119.510689,265.027557 117.797638,263.425598 114.038857,263.614258 
	C112.379372,263.697510 110.708702,263.611420 109.043098,263.611389 
	C76.063133,263.610199 43.083157,263.622101 10.103221,263.591553 
	C7.301714,263.588959 4.415972,264.011566 1.386001,262.293427 
z"/>
<path fill="#030303" opacity="1.000000" stroke="none" 
	d="
M355.468628,466.000000 
	C350.103363,463.372162 344.874329,461.359253 340.737122,457.386353 
	C338.706909,455.436829 338.036072,454.245667 340.479919,452.002594 
	C345.385590,447.499939 350.012726,442.688965 354.664856,437.917542 
	C356.266998,436.274384 357.144073,435.386047 359.176300,437.842438 
	C364.771942,444.606049 370.615173,443.877899 374.772522,436.080933 
	C377.586884,430.802734 379.247528,425.053314 381.247742,418.597107 
	C374.311096,421.039734 373.266174,416.653046 371.702728,411.871429 
	C360.811371,378.561768 349.680115,345.330566 338.608093,312.021210 
	C336.559906,311.831970 335.881958,313.672058 334.826172,314.777771 
	C324.124847,325.984955 313.575317,337.338654 302.767242,348.441010 
	C300.485260,350.785187 300.261932,352.237793 302.104614,354.986023 
	C315.260406,374.606750 328.225128,394.355591 341.244720,414.067566 
	C342.144531,415.429871 342.996643,416.823700 344.364807,418.981903 
	C334.999390,418.981903 326.190704,418.130646 317.619171,419.192841 
	C306.372101,420.586609 299.591156,416.864380 294.894287,406.417114 
	C290.762970,397.227631 284.759766,388.877594 279.545959,380.179169 
	C278.711304,378.786652 278.169586,377.135498 276.887970,376.374054 
	C270.383301,380.523224 268.060150,386.180359 268.802002,393.776520 
	C269.479095,400.709534 268.724915,407.770660 269.035889,414.755951 
	C269.198486,418.407684 267.942017,419.155060 264.555908,419.059204 
	C256.063751,418.818695 247.552719,418.769745 239.064606,419.073364 
	C235.154465,419.213257 234.088882,418.148712 234.106171,414.167755 
	C234.268173,376.839630 234.202286,339.510529 234.202286,302.181702 
	C234.202286,289.016632 234.316010,275.849915 234.125366,262.687622 
	C234.075333,259.233276 234.979156,258.085724 238.548401,258.184082 
	C247.540497,258.431824 256.545044,258.343567 265.542175,258.217468 
	C268.094940,258.181702 269.044861,258.868134 268.993378,261.569000 
	C268.469727,289.049957 269.904449,316.551819 268.105743,344.019318 
	C267.998352,345.659424 267.684296,347.297241 267.330597,348.906250 
	C267.086212,350.018036 266.389740,351.353638 267.787079,351.888336 
	C269.267273,352.454712 269.608521,350.850708 270.145935,349.899689 
	C278.616180,334.910095 289.766449,321.816223 299.744843,307.892212 
	C301.693542,305.172913 303.792328,304.158478 307.156464,304.185364 
	C327.478790,304.347595 347.803131,304.299194 368.126465,304.222351 
	C370.512878,304.213348 372.116211,304.448456 372.887939,307.182251 
	C378.843323,328.278564 386.717499,348.815308 391.391541,370.283203 
	C392.655182,376.087128 393.472198,381.988251 394.568146,388.268372 
	C396.815765,386.481171 396.524994,384.041992 396.891907,381.995575 
	C401.514191,356.216400 410.813171,331.752899 417.935303,306.678253 
	C418.636139,304.210968 420.184021,304.245697 422.086029,304.252808 
	C430.251587,304.283295 438.421753,304.423920 446.581024,304.195404 
	C450.313568,304.090851 450.692566,305.174805 449.571991,308.478638 
	C441.092224,333.479828 432.781036,358.538086 424.389618,383.569305 
	C418.266602,401.833954 412.310028,420.158386 405.876099,438.313263 
	C402.084686,449.011627 396.413635,458.554596 385.399200,463.539948 
	C383.753815,464.284668 381.966431,464.715546 380.122375,465.645813 
	C371.979095,466.000000 363.958191,466.000000 355.468628,466.000000 
z"/>
<path fill="#020202" opacity="1.000000" stroke="none" 
	d="
M966.531372,1.000000 
	C974.607422,3.578923 982.484375,5.342157 989.206421,10.243620 
	C1000.832458,18.720943 1006.550415,30.469152 1009.064270,44.196934 
	C1009.388306,45.966141 1009.169861,46.829170 1007.105286,47.241909 
	C996.669983,49.328045 986.264709,51.568001 975.867920,53.840630 
	C973.502380,54.357719 973.109558,53.313896 972.919983,51.276714 
	C972.376343,45.436726 971.031311,39.783421 967.903748,34.718262 
	C963.362793,27.364124 954.973877,23.950542 946.739380,26.245829 
	C941.547607,27.692984 938.205261,31.060951 936.816711,36.416389 
	C935.213074,42.601746 936.369446,48.005009 941.032349,52.413654 
	C946.236206,57.333702 952.842285,59.724758 959.422852,62.078373 
	C971.918335,66.547585 984.686829,70.308418 995.794861,78.026665 
	C1010.160828,88.008583 1014.311035,102.286362 1012.818604,118.662857 
	C1011.338379,134.904999 1003.577698,147.500259 988.436829,154.355835 
	C966.416687,164.326218 943.960083,163.701324 922.163513,154.046005 
	C905.122253,146.497208 897.656250,131.488892 894.882202,113.752609 
	C894.567810,111.742737 895.245605,111.192535 897.160828,110.967392 
	C907.576965,109.742859 917.987915,108.459648 928.375183,107.013496 
	C931.105957,106.633308 932.258789,107.469185 932.637207,110.128868 
	C933.251221,114.443344 934.726440,118.501930 936.901367,122.286980 
	C942.429504,131.907471 955.681396,136.626694 966.023499,132.672745 
	C975.553589,129.029236 978.003296,116.136353 970.540710,108.659065 
	C966.820068,104.930969 962.078613,102.863014 957.324158,100.837791 
	C946.184814,96.092880 934.501404,92.718948 923.845093,86.730469 
	C896.856201,71.563560 896.490906,42.824081 905.880920,24.561228 
	C912.867737,10.972571 925.021057,4.299773 939.848022,1.359034 
	C948.687561,1.000000 957.375183,1.000000 966.531372,1.000000 
z"/>
<path fill="#020202" opacity="1.000000" stroke="none" 
	d="
M531.531372,1.000000 
	C536.293579,3.456168 541.304321,3.714563 545.813110,5.756563 
	C564.167725,14.069307 573.221375,29.045244 577.240784,47.943214 
	C577.680359,50.010208 576.982300,50.579742 575.220215,50.966042 
	C564.344116,53.350414 553.455872,55.689426 542.631653,58.293037 
	C540.195251,58.879086 539.789246,57.983212 539.553101,56.070347 
	C538.899719,50.779465 537.947632,45.547382 535.849976,40.607063 
	C532.535645,32.801441 526.950684,27.899128 518.247559,27.119671 
	C509.388794,26.326279 503.231415,30.577824 498.979889,37.885189 
	C494.202301,46.096737 492.343109,55.222027 491.540894,64.557152 
	C490.018616,82.272522 490.415558,99.810028 497.107422,116.661766 
	C498.907196,121.194031 501.317230,125.346306 504.829376,128.769455 
	C513.681091,137.396759 527.408508,135.788315 534.078430,125.355721 
	C537.455566,120.073486 539.183838,114.166100 539.975708,108.044571 
	C540.441345,104.444992 541.779236,103.409904 545.422485,103.940742 
	C556.124390,105.500015 566.877075,106.713570 577.615173,108.018768 
	C579.151917,108.205566 580.062500,108.411583 579.547058,110.421799 
	C573.532227,133.879974 561.434387,154.697113 535.076294,159.370911 
	C513.788574,163.145630 493.135223,161.332443 475.493103,146.957031 
	C464.605438,138.085388 458.812744,126.032295 455.676941,112.599434 
	C450.670502,91.152939 450.353943,69.628792 456.350342,48.396114 
	C463.117615,24.433821 477.837280,7.871668 502.881592,1.356380 
	C512.354248,1.000000 521.708435,1.000000 531.531372,1.000000 
z"/>
<path fill="#010101" opacity="1.000000" stroke="none" 
	d="
M1.000000,262.468658 
	C10.147330,262.089996 19.294584,262.247131 28.442003,262.257568 
	C57.747593,262.290955 87.053696,262.347687 116.358337,262.177551 
	C120.282127,262.154816 121.509315,263.143646 121.306953,267.115021 
	C120.968452,273.758148 121.012444,280.439606 121.293633,287.088074 
	C121.451111,290.811554 120.648720,292.216187 116.518242,292.089172 
	C105.705368,291.756653 94.871101,292.153046 84.054733,291.883270 
	C80.178246,291.786591 79.100533,292.779694 79.117043,296.759552 
	C79.278725,335.722046 79.139748,374.685822 79.320343,413.648163 
	C79.340256,417.943359 78.465866,419.306396 73.959801,419.099213 
	C64.987267,418.686646 55.976490,418.787842 46.993809,419.069336 
	C43.357468,419.183319 42.700172,417.966248 42.710281,414.602875 
	C42.827892,375.473541 42.693066,336.343231 42.909992,297.214783 
	C42.935291,292.651672 41.650967,291.763550 37.400822,291.872314 
	C25.586412,292.174683 13.759237,291.978149 1.468552,291.989349 
	C1.000000,282.312439 1.000000,272.624878 1.000000,262.468658 
z"/>
<path fill="#020202" opacity="1.000000" stroke="none" 
	d="
M775.722412,73.457298 
	C770.528809,67.451889 764.186096,67.197388 757.657959,69.218109 
	C751.040039,71.266617 748.065674,76.631737 747.070374,83.099930 
	C746.566406,86.375038 746.527710,89.743156 746.520264,93.069771 
	C746.474365,113.568527 746.424133,134.067963 746.570190,154.565796 
	C746.594116,157.925766 745.898987,159.182877 742.247009,159.069672 
	C733.256104,158.791016 724.249329,158.887329 715.252197,159.035263 
	C712.676392,159.077621 711.877136,158.394714 711.883362,155.736069 
	C711.968140,119.738266 711.975525,83.740089 711.875122,47.742359 
	C711.866760,44.748901 712.926758,44.164738 715.628174,44.213482 
	C723.958374,44.363789 732.295654,44.388947 740.624390,44.202511 
	C743.533813,44.137383 744.438110,45.086605 744.260559,47.898464 
	C744.053650,51.175407 744.212341,54.475426 744.212341,59.190697 
	C752.747437,46.531021 764.298706,42.113575 777.761841,42.393009 
	C791.642395,42.681114 802.669556,47.915600 808.041016,62.737900 
	C813.632019,52.278175 821.636475,45.814602 832.598389,43.688511 
	C847.098694,40.876156 860.899719,41.700081 871.872437,53.335281 
	C877.859070,59.683365 880.613586,67.664200 880.735229,76.101669 
	C881.119812,102.760963 880.953491,129.427917 881.108032,156.091278 
	C881.123108,158.694901 880.056580,159.041397 877.856567,159.018066 
	C868.858093,158.922623 859.853516,158.815338 850.860718,159.060623 
	C847.379272,159.155579 846.372986,158.183655 846.400513,154.661469 
	C846.562317,133.997208 846.504700,113.330986 846.456604,92.665573 
	C846.448059,89.004829 846.337158,85.321800 845.922607,81.689110 
	C845.000305,73.606575 840.912781,69.306274 833.544556,68.290550 
	C825.772034,67.219078 818.998474,70.842491 815.888733,77.575066 
	C813.862244,81.962425 813.797302,86.601532 813.794250,91.264503 
	C813.780640,112.096664 813.617126,132.931335 813.920288,153.759109 
	C813.987793,158.394638 812.565857,159.243240 808.363708,159.076172 
	C800.044006,158.745407 791.696289,158.800308 783.371704,159.063782 
	C779.909729,159.173370 778.929138,158.296875 778.958313,154.729156 
	C779.137146,132.898499 779.042908,111.065651 779.046448,89.233528 
	C779.047302,83.869286 778.724243,78.575500 775.722412,73.457298 
z"/>
<path fill="#020202" opacity="1.000000" stroke="none" 
	d="
M1608.311035,369.350647 
	C1606.802856,385.182373 1601.687256,398.899658 1590.129883,409.694427 
	C1574.358765,424.424652 1546.416748,424.975464 1534.151367,410.083435 
	C1533.468872,409.254669 1532.649048,408.793671 1531.422363,409.118713 
	C1534.564697,426.701508 1533.146851,444.481262 1533.518555,462.196381 
	C1533.564087,464.368835 1532.769287,465.039307 1530.618408,465.018097 
	C1520.957397,464.922821 1511.293335,464.873779 1501.634277,465.039246 
	C1498.756836,465.088531 1498.919189,463.549988 1498.924927,461.611267 
	C1498.958740,450.117126 1498.941528,438.622803 1498.941528,427.128540 
	C1498.941528,387.814819 1498.991333,348.500977 1498.860962,309.187683 
	C1498.848511,305.431519 1499.562012,303.982697 1503.685059,304.164001 
	C1511.831909,304.522308 1520.019287,304.553040 1528.162842,304.159241 
	C1532.763550,303.936768 1534.238159,305.341705 1533.185913,309.739838 
	C1532.782837,311.424866 1532.700439,313.186554 1532.475586,314.886444 
	C1533.937378,315.313354 1534.678467,314.385986 1535.548706,313.582886 
	C1557.400146,293.417267 1591.422729,300.761719 1602.874023,328.233795 
	C1608.299805,341.250305 1609.322754,354.969421 1608.311035,369.350647 
z"/>
<path fill="#020202" opacity="1.000000" stroke="none" 
	d="
M1200.726807,389.828552 
	C1207.402588,383.449554 1209.122314,375.253082 1210.640503,367.068390 
	C1211.144165,364.353607 1211.947632,363.509674 1214.739990,363.887939 
	C1225.790894,365.384735 1236.867065,366.699738 1247.943848,367.996826 
	C1249.661865,368.198029 1250.365112,368.782715 1249.914429,370.512726 
	C1244.508423,391.265900 1233.692261,413.756836 1206.814941,419.049957 
	C1185.199463,423.306824 1164.250977,421.603088 1146.183960,407.191528 
	C1134.602539,397.953369 1128.670166,385.189575 1125.728516,371.009796 
	C1120.878052,347.628510 1120.661377,324.319580 1129.037231,301.619843 
	C1141.523926,267.779938 1171.515869,256.008209 1202.679688,261.770203 
	C1228.167603,266.482727 1242.074829,282.704865 1247.533813,307.274384 
	C1248.041382,309.558197 1247.910522,310.508820 1245.385254,311.040985 
	C1234.813965,313.268860 1224.265137,315.616547 1213.759399,318.134308 
	C1210.996094,318.796509 1210.128662,318.409943 1209.810425,315.390533 
	C1209.112427,308.766724 1207.693726,302.269806 1204.047729,296.483551 
	C1196.602661,284.668091 1180.626709,283.554932 1171.834351,294.396759 
	C1165.970215,301.627655 1163.847900,310.390594 1162.611816,319.343109 
	C1159.865967,339.228088 1160.329346,358.876678 1168.004028,377.802948 
	C1172.702271,389.388947 1180.388306,394.838959 1190.434448,394.053467 
	C1194.200562,393.759003 1197.508911,392.392700 1200.726807,389.828552 
z"/>
<path fill="#040404" opacity="1.000000" stroke="none" 
	d="
M259.000183,131.263702 
	C267.499878,131.263748 275.502075,131.378372 283.497955,131.203796 
	C286.435547,131.139679 287.671295,131.830551 287.568970,135.037155 
	C287.351196,141.863281 287.355835,148.705734 287.569153,155.532135 
	C287.662903,158.531677 286.500580,159.041214 283.820129,159.033691 
	C254.154846,158.950348 224.489136,158.946854 194.823883,159.037415 
	C192.035248,159.045944 191.137924,158.310791 191.142563,155.432785 
	C191.222900,105.601501 191.220169,55.770020 191.147858,5.938715 
	C191.143799,3.145981 191.900146,2.199171 194.787704,2.208226 
	C223.952972,2.299689 253.118774,2.304455 282.283966,2.202882 
	C285.273132,2.192471 285.905579,3.287254 285.840393,5.995116 
	C285.680023,12.657666 285.595276,19.334538 285.867096,25.989847 
	C286.008453,29.451239 284.706055,30.076309 281.567383,30.048836 
	C265.069275,29.904419 248.568649,30.052540 232.070374,29.917173 
	C229.013123,29.892090 227.753387,30.397203 227.853561,33.885792 
	C228.126175,43.377594 228.132065,52.887836 227.851700,62.379189 
	C227.746826,65.929611 229.101517,66.352913 232.117371,66.324677 
	C246.615540,66.188934 261.117279,66.379013 275.613983,66.181046 
	C279.147339,66.132782 280.188049,67.150002 280.024567,70.641151 
	C279.744293,76.627800 279.736237,82.647346 280.027985,88.632904 
	C280.196960,92.099976 279.260406,93.124481 275.682159,93.071663 
	C261.019257,92.855164 246.349976,93.084488 231.686218,92.899063 
	C228.543213,92.859322 227.811996,93.720871 227.870956,96.769279 
	C228.070755,107.098358 228.050476,117.435379 227.880539,127.765518 
	C227.833313,130.635910 228.702606,131.381912 231.502686,131.328003 
	C240.498932,131.154739 249.500580,131.263641 259.000183,131.263702 
z"/>
<path fill="#020202" opacity="1.000000" stroke="none" 
	d="
M399.211975,23.929256 
	C400.034821,28.935141 398.253326,30.184904 393.667450,30.096825 
	C377.683777,29.789824 361.689270,30.086912 345.702026,29.893681 
	C342.162231,29.850897 341.314270,30.889166 341.409821,34.319801 
	C341.664764,43.473396 341.720520,52.646809 341.392181,61.795719 
	C341.250458,65.745216 342.630798,66.396973 346.181000,66.348839 
	C360.502350,66.154694 374.829559,66.386658 389.150696,66.184883 
	C392.709290,66.134743 393.716797,67.209915 393.569794,70.671242 
	C393.308441,76.822792 393.338745,82.999168 393.562988,89.153641 
	C393.674683,92.219093 392.769409,93.089462 389.662506,93.053543 
	C375.007385,92.884132 360.348633,93.042549 345.692474,92.923904 
	C342.748230,92.900078 341.301788,93.237984 341.399811,96.829308 
	C341.676880,106.981789 341.652466,117.150452 341.410889,127.304741 
	C341.328278,130.776093 342.615814,131.351852 345.688293,131.328949 
	C362.676270,131.202316 379.666595,131.360886 396.653839,131.190781 
	C400.071808,131.156555 401.298309,131.951218 401.138855,135.555008 
	C400.844666,142.204315 400.973907,148.877441 401.097931,155.537445 
	C401.141968,157.900894 400.845093,159.056625 397.958984,159.045944 
	C367.978912,158.935150 337.997986,158.911621 308.018280,159.064087 
	C304.434326,159.082291 304.933380,157.160126 304.934387,155.005997 
	C304.944244,133.520004 304.940338,112.034019 304.940338,90.548027 
	C304.940308,62.732834 305.023193,34.917110 304.846039,7.103044 
	C304.821075,3.179106 305.823761,2.149181 309.762848,2.173793 
	C338.076630,2.350703 366.392578,2.355743 394.706207,2.167408 
	C398.622162,2.141360 399.486755,3.339908 399.289978,6.954032 
	C398.991547,12.434080 399.211975,17.942379 399.211975,23.929256 
z"/>
<path fill="#020202" opacity="1.000000" stroke="none" 
	d="
M114.216118,112.999313 
	C114.216164,118.163086 114.422386,122.839638 114.145523,127.487419 
	C113.953239,130.715408 115.199005,131.349289 118.148323,131.327972 
	C135.138718,131.205139 152.132294,131.402771 169.120377,131.169235 
	C173.133957,131.114029 174.232681,132.268250 174.037003,136.175751 
	C173.712509,142.656158 173.830917,149.167831 174.006470,155.659744 
	C174.076538,158.251282 173.377106,159.046082 170.697510,159.037582 
	C140.879761,158.942978 111.061470,158.934418 81.243851,159.045868 
	C78.281067,159.056931 77.724960,158.073380 77.729073,155.353836 
	C77.804268,105.546165 77.802605,55.738335 77.734024,5.930654 
	C77.730255,3.191284 78.368385,2.192976 81.323479,2.203834 
	C110.474800,2.310936 139.626694,2.284031 168.778320,2.236923 
	C170.918060,2.233465 172.164398,2.479439 172.109268,5.131128 
	C171.956894,12.457529 171.909256,19.793507 172.124527,27.116755 
	C172.219406,30.344446 170.379150,29.993330 168.334030,29.990583 
	C151.842529,29.968439 135.349640,30.088732 118.860466,29.891630 
	C115.251701,29.848495 113.971085,30.538580 114.110001,34.462784 
	C114.439804,43.779655 114.349609,53.119091 114.141922,62.443008 
	C114.071785,65.591721 115.085869,66.360977 118.101540,66.331917 
	C132.759323,66.190636 147.420181,66.357681 162.077591,66.198380 
	C165.295410,66.163406 166.455429,66.933815 166.297058,70.335442 
	C166.010757,76.485611 165.967224,82.672493 166.308502,88.817047 
	C166.516251,92.557358 165.096710,93.095352 161.787979,93.054756 
	C147.297592,92.876968 132.802628,93.076477 118.312141,92.902596 
	C115.073952,92.863731 113.951828,93.657890 114.140190,97.012001 
	C114.429283,102.159790 114.216125,107.335793 114.216118,112.999313 
z"/>
<path fill="#020202" opacity="1.000000" stroke="none" 
	d="
M1262.784790,382.999847 
	C1262.784790,342.845947 1262.875854,303.191559 1262.661499,263.538849 
	C1262.636597,258.947540 1263.956299,257.996735 1268.221069,258.168121 
	C1276.704590,258.509094 1285.212524,258.340668 1293.708130,258.224365 
	C1296.149780,258.190979 1297.324951,258.658722 1297.264038,261.466339 
	C1296.900024,278.278351 1297.974854,295.124756 1296.012329,311.896820 
	C1295.826782,313.483368 1295.449951,315.047546 1295.125610,316.820496 
	C1297.869995,317.218109 1298.459229,314.768066 1299.549072,313.479034 
	C1312.382935,298.300842 1347.886597,297.165192 1359.430054,319.002563 
	C1363.374146,326.463928 1364.442993,334.457703 1364.474731,342.652161 
	C1364.568481,366.810669 1364.457764,390.970032 1364.576782,415.128326 
	C1364.591553,418.139862 1363.892456,419.137909 1360.729248,419.056549 
	C1351.904663,418.829559 1343.064941,418.800079 1334.242554,419.065979 
	C1330.764038,419.170807 1329.822266,418.288483 1329.852905,414.736603 
	C1330.036011,393.578339 1329.947388,372.417694 1329.939087,351.257843 
	C1329.937744,347.762207 1329.854980,344.288147 1329.189087,340.817047 
	C1327.672974,332.913055 1324.337769,329.348297 1317.135010,328.302795 
	C1309.590820,327.207703 1302.849487,330.628632 1299.707031,337.115173 
	C1297.457275,341.759033 1297.238892,346.753113 1297.230225,351.755951 
	C1297.194458,372.582520 1297.095947,393.410431 1297.318970,414.234680 
	C1297.362061,418.252594 1296.201172,419.199341 1292.369995,419.068176 
	C1283.882568,418.777618 1275.375000,418.835785 1266.883057,419.050751 
	C1263.694458,419.131470 1262.628296,418.354187 1262.701416,414.987762 
	C1262.929321,404.496155 1262.784912,393.996429 1262.784790,382.999847 
z"/>
<path fill="#020202" opacity="1.000000" stroke="none" 
	d="
M1438.633423,328.289978 
	C1428.402588,321.914459 1418.889526,325.767059 1415.050903,337.475861 
	C1412.947144,343.892975 1412.956543,343.845154 1406.193481,342.522949 
	C1399.831055,341.279114 1393.461426,340.055786 1387.063354,339.019043 
	C1384.541870,338.610443 1383.828735,338.099945 1384.664795,335.229004 
	C1390.138428,316.435089 1405.069946,304.385864 1424.483154,302.809753 
	C1434.079834,302.030670 1443.439941,302.569519 1452.609985,305.359375 
	C1468.374146,310.155273 1478.101562,323.161713 1478.760010,341.034180 
	C1479.225708,353.675964 1478.891968,366.346588 1478.964722,379.004059 
	C1478.978882,381.480927 1478.868896,383.962463 1479.814087,386.387360 
	C1480.658325,388.553284 1482.020996,390.862305 1484.119019,390.747131 
	C1490.028442,390.422729 1489.713745,393.937469 1489.544312,397.968536 
	C1489.341797,402.790192 1489.398438,407.629761 1489.539307,412.455811 
	C1489.606079,414.740723 1489.073242,416.111694 1486.646729,416.790680 
	C1478.155762,419.166504 1469.609741,419.889282 1460.994751,417.796448 
	C1455.300903,416.413239 1451.507690,412.651123 1449.355347,406.939667 
	C1434.593140,423.316833 1416.741577,423.848114 1398.007690,417.257660 
	C1386.006348,413.035645 1380.283081,403.236694 1379.113403,390.835144 
	C1377.823608,377.160248 1382.076538,365.737640 1394.127319,358.345978 
	C1407.181763,350.338623 1421.760376,349.389282 1436.565430,350.628357 
	C1444.222900,351.269257 1444.219360,351.504852 1443.998535,343.769714 
	C1443.839233,338.188110 1442.968262,332.828949 1438.633423,328.289978 
z"/>
<path fill="#020202" opacity="1.000000" stroke="none" 
	d="
M158.600250,302.650513 
	C171.165207,301.951477 182.909409,303.255341 193.914612,308.899536 
	C206.518478,315.363647 214.393982,325.697296 218.045837,339.113312 
	C222.383347,355.048157 222.107346,371.104492 216.880081,386.804596 
	C211.531464,402.869171 200.768051,413.897675 184.200989,418.222778 
	C163.802582,423.548096 144.260498,422.065979 126.958199,408.592773 
	C118.935440,402.345490 114.033562,393.795197 111.477142,384.158081 
	C107.613312,369.592316 107.565804,354.811890 111.613358,340.260925 
	C117.999619,317.302307 133.483337,304.985413 158.600250,302.650513 
z"/>
<path fill="#030303" opacity="1.000000" stroke="none" 
	d="
M955.206055,403.994171 
	C955.205750,385.830994 955.209473,368.166870 955.199158,350.502747 
	C955.198120,348.670380 955.142212,346.836853 955.063599,345.005920 
	C954.579285,333.730469 949.780762,328.278870 940.243408,328.146271 
	C930.657288,328.013000 923.872864,334.339874 923.065430,344.558441 
	C922.672607,349.530853 922.807068,354.549286 922.800110,359.547028 
	C922.774597,377.877686 922.707520,396.209137 922.864868,414.538483 
	C922.893616,417.895599 922.235596,419.185638 918.555115,419.071075 
	C909.565125,418.791168 900.558167,418.861633 891.563293,419.047638 
	C888.655151,419.107758 887.983948,418.174805 887.990906,415.388184 
	C888.079773,379.560211 888.078613,343.731934 887.993469,307.903931 
	C887.986816,305.101501 888.742310,304.150574 891.615295,304.206757 
	C900.110840,304.372864 908.613159,304.353699 917.109619,304.214111 
	C919.742004,304.170898 920.675110,305.043945 920.546082,307.645050 
	C920.382690,310.938446 920.506531,314.246063 920.506531,319.050201 
	C926.460205,310.470123 933.412354,305.380707 942.359314,303.623535 
	C956.583313,300.829926 969.953674,302.011017 980.656006,313.257507 
	C985.515808,318.364380 987.950256,324.722351 988.983215,331.582336 
	C989.551819,335.358643 989.895691,339.205902 989.908752,343.022675 
	C989.990540,366.852264 989.846252,390.683258 990.054871,414.511322 
	C990.088745,418.388336 988.968872,419.180023 985.345093,419.068390 
	C976.521484,418.796478 967.682007,418.882629 958.852722,419.037476 
	C956.117554,419.085480 954.945496,418.455597 955.147095,415.487854 
	C955.395081,411.838470 955.206177,408.159454 955.206055,403.994171 
z"/>
<path fill="#020202" opacity="1.000000" stroke="none" 
	d="
M593.625244,135.270386 
	C583.514038,113.273224 583.312073,91.184090 593.242981,69.810249 
	C603.080566,48.637268 622.085266,42.122185 644.038818,42.446133 
	C653.751160,42.589451 663.157898,44.448360 671.911865,49.067341 
	C684.279541,55.593040 692.137207,65.874992 695.681763,79.053505 
	C699.816284,94.425194 699.673157,110.057823 694.923767,125.359688 
	C689.284485,143.529160 677.168152,155.163223 658.432434,159.103973 
	C639.088501,163.172668 620.682678,161.274780 604.516174,148.607773 
	C600.008850,145.076172 596.531555,140.628876 593.625244,135.270386 
z"/>
<path fill="#020202" opacity="1.000000" stroke="none" 
	d="
M811.096313,324.939697 
	C824.232727,349.657318 823.649536,374.219025 810.764221,398.179138 
	C804.298889,410.201447 792.893616,416.739929 779.515747,419.299530 
	C760.658875,422.907410 742.666016,421.275482 726.934265,409.038574 
	C717.172546,401.445404 712.062012,391.017303 709.751648,379.008759 
	C706.925659,364.320221 707.491089,349.805481 712.365112,335.683472 
	C719.964172,313.666351 740.729187,300.995209 765.852661,302.363556 
	C778.903076,303.074341 791.193665,305.781982 801.605469,314.292267 
	C805.242249,317.264893 808.378845,320.673187 811.096313,324.939697 
z"/>
<path fill="#020202" opacity="1.000000" stroke="none" 
	d="
M508.621277,302.459106 
	C520.578857,302.949371 531.435242,305.561127 540.996704,312.298309 
	C553.527283,321.127594 559.554626,333.820862 561.449890,348.522156 
	C563.165649,361.830231 562.645935,375.157257 557.919373,387.919128 
	C549.927368,409.497437 533.343506,419.285767 511.246613,420.795380 
	C499.493774,421.598358 488.036957,419.959717 477.332550,414.544525 
	C464.701843,408.154907 456.755371,397.858887 453.009674,384.469604 
	C448.846191,369.587006 448.934418,354.494019 453.133911,339.619934 
	C459.932709,315.539368 478.521759,302.490814 505.676331,302.325439 
	C506.507629,302.320374 507.339294,302.381775 508.621277,302.459106 
z"/>
<path fill="#020202" opacity="1.000000" stroke="none" 
	d="
M1102.599121,47.269058 
	C1122.030884,56.488976 1130.512817,72.311119 1132.229248,92.698509 
	C1133.005737,101.921997 1132.617310,111.018356 1130.638306,119.997940 
	C1125.177612,144.775024 1107.303345,159.570862 1081.407349,160.847336 
	C1070.315430,161.394073 1059.464600,160.113571 1049.291748,155.309387 
	C1031.428345,146.873184 1023.272339,131.779877 1021.139099,112.983551 
	C1019.895386,102.024849 1020.293762,91.008873 1023.287720,80.276077 
	C1031.115845,52.213623 1053.229736,41.651711 1078.900513,42.455074 
	C1086.935913,42.706543 1094.750488,44.146111 1102.599121,47.269058 
z"/>
<path fill="#020202" opacity="1.000000" stroke="none" 
	d="
M1728.397949,371.994568 
	C1724.171509,384.064545 1736.838623,399.243195 1748.862427,396.967377 
	C1754.763062,395.850616 1757.932129,391.501617 1759.640991,386.258759 
	C1760.664551,383.118713 1761.763550,382.477448 1764.902344,383.528168 
	C1772.300537,386.004730 1779.785889,388.268127 1787.341064,390.209198 
	C1791.360718,391.241882 1791.239258,392.881134 1789.615112,396.021301 
	C1782.474487,409.826996 1771.739258,418.336426 1755.969116,420.267365 
	C1747.768555,421.271484 1739.668579,421.190765 1731.614502,419.666870 
	C1713.324219,416.206238 1700.778076,405.511902 1695.364868,387.859650 
	C1689.439453,368.537018 1689.920288,348.958252 1698.117798,330.227325 
	C1706.545776,310.970245 1725.259766,300.623322 1746.717651,302.391571 
	C1754.385132,303.023376 1761.939209,304.093292 1768.950073,307.474823 
	C1785.393066,315.405609 1792.148682,329.628693 1793.806152,346.801971 
	C1794.491943,353.907654 1793.943604,361.124359 1794.290405,368.274414 
	C1794.447754,371.516479 1793.288452,372.065613 1790.334229,372.047333 
	C1769.842651,371.920349 1749.349976,371.981262 1728.397949,371.994568 
z"/>
<path fill="#030303" opacity="1.000000" stroke="none" 
	d="
M617.308716,414.779419 
	C606.535461,407.841370 602.132812,397.094269 598.141052,386.068237 
	C597.513367,384.334351 598.441406,383.637085 599.863831,383.167633 
	C608.533081,380.306213 617.234375,377.536102 625.848755,374.517883 
	C628.413025,373.619446 628.607056,374.953156 629.022217,376.742554 
	C630.113708,381.446472 631.558472,386.042664 634.115295,390.186218 
	C637.641541,395.900879 642.662354,398.295807 648.391174,396.921570 
	C654.235107,395.519684 655.921997,390.812286 656.701111,385.691864 
	C657.123596,382.915070 657.030457,380.047516 657.031921,377.220856 
	C657.050537,340.588654 657.116577,303.956085 656.945984,267.324677 
	C656.926331,263.114410 658.125732,262.036957 662.213501,262.168427 
	C671.694763,262.473358 681.193481,262.338593 690.683105,262.219971 
	C693.437622,262.185516 694.869873,262.548340 694.858276,265.924408 
	C694.731201,303.055573 695.088623,340.191315 694.636047,377.317505 
	C694.328857,402.515503 679.155701,417.945007 653.991394,420.289612 
	C641.415894,421.461304 629.056458,421.459381 617.308716,414.779419 
z"/>
<path fill="#030303" opacity="1.000000" stroke="none" 
	d="
M1176.302124,83.608459 
	C1174.227905,96.617729 1173.998413,109.185402 1177.044922,121.673553 
	C1177.359009,122.961075 1177.757690,124.241081 1178.255005,125.468651 
	C1181.477295,133.422089 1186.622559,137.268188 1193.835693,137.174240 
	C1200.276123,137.090378 1204.953979,132.991348 1208.163818,125.196251 
	C1209.309448,122.413589 1208.616211,118.034866 1211.637817,117.122932 
	C1214.086548,116.383881 1217.344971,118.258331 1220.226929,119.037758 
	C1226.798096,120.814934 1233.319702,122.796684 1239.940186,124.362389 
	C1243.251953,125.145615 1244.069092,126.216393 1242.708252,129.585083 
	C1236.335938,145.361237 1225.343994,155.685745 1208.507935,159.294495 
	C1197.108887,161.737854 1185.653076,161.830917 1174.403076,158.689087 
	C1158.357422,154.208023 1148.031616,143.494553 1143.443848,127.694359 
	C1138.250610,109.809311 1138.573730,91.818733 1145.133789,74.272743 
	C1152.964722,53.328369 1172.456055,41.088665 1194.833740,42.334038 
	C1207.739258,43.052261 1219.970947,45.337383 1229.441162,55.145103 
	C1236.204834,62.149670 1239.890137,70.775940 1242.516357,79.999046 
	C1243.211304,82.439789 1241.658813,82.504242 1240.299805,82.846542 
	C1231.443237,85.077255 1222.535645,87.116295 1213.726685,89.518410 
	C1211.226562,90.200134 1210.943970,89.157112 1210.578003,87.319191 
	C1209.667969,82.747780 1208.455322,78.262131 1206.028442,74.216377 
	C1203.035034,69.225861 1199.056519,65.790756 1192.821899,65.914352 
	C1186.464844,66.040382 1182.226440,69.410103 1179.539551,74.842567 
	C1178.227051,77.495758 1177.439575,80.408569 1176.302124,83.608459 
z"/>
<path fill="#030303" opacity="1.000000" stroke="none" 
	d="
M1628.483643,296.204254 
	C1627.507446,290.755371 1629.715454,288.057129 1634.178589,285.745087 
	C1643.425293,280.955078 1652.304565,275.455902 1662.059692,269.830414 
	C1662.059692,280.462677 1662.211792,290.366302 1661.975464,300.260651 
	C1661.895020,303.627930 1662.943970,304.474976 1666.155273,304.336151 
	C1671.973755,304.084656 1677.812378,304.343658 1683.639404,304.227692 
	C1685.990601,304.180908 1686.881714,304.957581 1686.832031,307.373993 
	C1686.705688,313.533813 1686.650269,319.702545 1686.851318,325.858398 
	C1686.946289,328.769592 1685.579346,329.062531 1683.240356,329.017426 
	C1677.413208,328.905090 1671.572144,329.188477 1665.757202,328.899017 
	C1662.508179,328.737305 1661.963867,329.901642 1661.991821,332.849823 
	C1662.137817,348.337738 1661.988281,363.828247 1662.086792,379.316925 
	C1662.158325,390.556488 1667.443970,395.408295 1678.718018,394.713501 
	C1681.692017,394.530273 1684.639526,393.915497 1688.203125,393.413849 
	C1688.203125,400.984070 1688.182373,408.587524 1688.219971,416.190735 
	C1688.227905,417.776337 1687.187988,418.036438 1686.019165,418.322845 
	C1672.864868,421.545807 1659.669189,422.812134 1646.836548,417.337738 
	C1635.501709,412.502350 1629.738892,403.229248 1628.979980,391.209076 
	C1627.772705,372.085388 1628.592407,352.916534 1628.583740,333.768555 
	C1628.582031,329.912537 1627.666626,328.795868 1623.725830,328.877930 
	C1612.052490,329.121002 1611.969116,328.936035 1612.092407,317.071320 
	C1612.135010,312.965576 1610.294556,307.751648 1612.887085,305.053345 
	C1615.297363,302.544861 1620.492432,304.197418 1624.426880,304.341064 
	C1631.516357,304.599945 1627.396362,299.345184 1628.483643,296.204254 
z"/>
<path fill="#020202" opacity="1.000000" stroke="none" 
	d="
M1015.776123,332.267151 
	C1016.087036,329.611359 1015.131226,328.859711 1012.969543,328.942780 
	C1009.477539,329.076965 1005.966858,328.817444 1002.482544,329.028931 
	C999.767395,329.193726 999.085022,328.141357 999.153809,325.584991 
	C999.314941,319.594177 999.322510,313.592712 999.152588,307.602386 
	C999.076172,304.907593 1000.081909,304.163971 1002.633301,304.217804 
	C1006.777405,304.305267 1012.071655,305.577454 1014.766907,303.545776 
	C1017.675171,301.353516 1015.458008,295.786072 1015.733154,291.703827 
	C1015.840454,290.111511 1016.026733,288.903778 1017.596313,288.012787 
	C1027.826416,282.205414 1038.008789,276.313995 1048.679443,270.178314 
	C1049.715454,275.483582 1049.070190,280.385742 1049.184082,285.234833 
	C1049.305176,290.394501 1049.380493,295.566895 1049.146362,300.718750 
	C1049.012207,303.671539 1050.089600,304.407745 1052.855225,304.322968 
	C1058.678345,304.144470 1064.515259,304.402557 1070.337646,304.211761 
	C1073.169067,304.118927 1074.110840,304.992828 1074.004883,307.866516 
	C1073.796265,313.520935 1073.773193,319.195587 1074.010376,324.847748 
	C1074.142700,328.000519 1073.387207,329.240112 1069.964844,329.058899 
	C1064.318481,328.759979 1058.636597,329.161163 1052.986084,328.905640 
	C1049.844849,328.763641 1049.106323,329.781158 1049.138062,332.829254 
	C1049.297974,348.148560 1049.121826,363.471130 1049.241699,378.791199 
	C1049.336670,390.928497 1055.242920,395.962646 1067.384277,394.588196 
	C1075.495850,393.669952 1075.495850,393.669983 1075.495850,401.799896 
	C1075.495850,406.129730 1075.370728,410.464691 1075.546997,414.787323 
	C1075.638184,417.023102 1074.900879,418.042694 1072.716309,418.542755 
	C1061.217407,421.175079 1049.681152,422.317047 1038.175537,418.910706 
	C1024.812500,414.954437 1016.359253,404.271179 1016.066650,390.189941 
	C1015.668701,371.047119 1015.845886,351.892303 1015.776123,332.267151 
z"/>
<path fill="#010101" opacity="1.000000" stroke="none" 
	d="
M45.888683,158.975266 
	C35.741417,158.975250 26.081034,158.888229 16.424061,159.031326 
	C13.731323,159.071228 12.718633,158.485245 12.723961,155.529327 
	C12.813716,105.735199 12.813216,55.940807 12.726239,6.146662 
	C12.720955,3.121454 13.477730,2.136176 16.613401,2.198798 
	C26.601583,2.398273 36.597702,2.366552 46.587502,2.212894 
	C49.406464,2.169534 50.273277,2.981296 50.268753,5.847385 
	C50.189892,55.808094 50.180023,105.769035 50.284233,155.729645 
	C50.291039,158.990097 48.802914,159.249664 45.888683,158.975266 
z"/>
<path fill="#030303" opacity="1.000000" stroke="none" 
	d="
M1842.517334,399.999329 
	C1842.517212,405.496979 1842.433960,410.496826 1842.552734,415.491821 
	C1842.609619,417.883179 1842.164917,419.096191 1839.314331,419.045135 
	C1829.821533,418.875092 1820.322632,418.905609 1810.828491,419.032928 
	C1808.418945,419.065216 1807.730835,418.332184 1807.735229,415.942627 
	C1807.801392,379.791718 1807.793823,343.640594 1807.749634,307.489624 
	C1807.746948,305.272614 1808.191895,304.162018 1810.759644,304.213348 
	C1818.086914,304.359833 1825.421265,304.371002 1832.747925,304.211243 
	C1835.551514,304.150146 1836.027710,305.366882 1835.994141,307.795563 
	C1835.882202,315.919464 1835.951782,324.045868 1836.246338,332.220490 
	C1837.870605,327.012299 1839.056396,321.724792 1841.558228,316.850830 
	C1847.678223,304.927704 1860.505127,299.000580 1873.498169,302.092773 
	C1875.424561,302.551239 1875.820190,303.527649 1875.811523,305.226868 
	C1875.771729,313.056610 1875.739868,320.887207 1875.823608,328.716278 
	C1875.849121,331.107758 1874.765015,331.409485 1872.712891,331.221741 
	C1869.734741,330.949310 1866.724243,330.879608 1863.731812,330.939178 
	C1850.135376,331.209930 1843.795166,337.046570 1842.950195,350.535339 
	C1841.928589,366.840881 1842.730225,383.177948 1842.517334,399.999329 
z"/>
<path fill="#040404" opacity="1.000000" stroke="none" 
	d="
M849.005127,304.261108 
	C854.169861,304.261108 858.861328,304.563354 863.494446,304.173218 
	C867.834229,303.807831 868.632507,305.520111 868.608643,309.500000 
	C868.443176,337.161560 868.521362,364.824554 868.521362,392.487091 
	C868.521362,399.985962 868.427917,407.486633 868.569580,414.982819 
	C868.622192,417.766266 868.235352,419.164917 864.850464,419.070496 
	C855.692322,418.815063 846.519409,418.854279 837.358643,419.056366 
	C834.366028,419.122375 833.877136,418.044647 833.883240,415.362335 
	C833.964722,379.534546 833.966858,343.706421 833.880920,307.878632 
	C833.874207,305.066193 834.629456,304.029663 837.511292,304.206970 
	C841.163574,304.431671 844.840149,304.261169 849.005127,304.261108 
z"/>
<path fill="#030303" opacity="1.000000" stroke="none" 
	d="
M845.985352,253.784821 
	C863.661377,250.855026 875.329041,263.565460 870.157776,279.579987 
	C867.248291,288.590271 858.427856,293.924591 848.587524,292.625061 
	C838.678040,291.316406 832.340210,284.497498 831.875183,274.644073 
	C831.339111,263.287262 835.607239,256.823578 845.985352,253.784821 
z"/>
<path fill="#FDFDFD" opacity="1.000000" stroke="none" 
	d="
M1570.518066,381.312134 
	C1565.341064,393.320312 1557.892578,397.826599 1548.178101,395.170654 
	C1541.386597,393.313843 1537.543091,388.485657 1535.678589,382.145050 
	C1531.691528,368.585876 1531.678833,354.895416 1536.085815,341.449371 
	C1539.224487,331.873383 1545.682983,327.323364 1554.032471,328.014252 
	C1560.994141,328.590271 1565.792725,332.583099 1568.618652,338.626984 
	C1575.054810,352.391754 1574.487305,366.624786 1570.518066,381.312134 
z"/>
<path fill="#FDFDFD" opacity="1.000000" stroke="none" 
	d="
M1421.568604,374.163086 
	C1425.930908,372.437622 1430.079102,372.624542 1434.233032,372.870880 
	C1445.985840,373.567749 1445.035034,373.172455 1442.851807,384.401733 
	C1440.949829,394.184235 1432.795532,399.002350 1423.031738,396.884399 
	C1418.084961,395.811371 1414.417114,392.193542 1413.819580,387.622742 
	C1413.006714,381.404846 1415.674194,377.047943 1421.568604,374.163086 
z"/>
<path fill="#FDFDFD" opacity="1.000000" stroke="none" 
	d="
M177.869370,389.861755 
	C166.894730,399.045990 153.492569,396.219452 148.290482,383.379059 
	C142.517670,369.130005 142.911697,354.446320 147.783585,339.994476 
	C150.299057,332.532623 155.883621,328.322479 163.900253,328.082703 
	C172.140091,327.836304 178.232117,331.848938 180.976837,339.377869 
	C187.182129,356.399384 187.961029,373.355530 177.869370,389.861755 
z"/>
<path fill="#FDFDFD" opacity="1.000000" stroke="none" 
	d="
M622.139648,94.404663 
	C622.914185,89.198654 623.386230,84.386574 625.269592,79.896423 
	C628.296082,72.681343 633.486816,68.295532 641.525696,68.072533 
	C649.783752,67.843468 655.412842,72.068916 658.715271,79.333351 
	C663.104858,88.989006 663.467651,99.253456 662.481079,109.611595 
	C662.025452,114.395142 661.253662,119.120148 659.322571,123.614609 
	C656.208862,130.861618 651.071350,134.977295 642.957703,135.144806 
	C634.780273,135.313629 629.517761,131.073685 626.146729,124.147186 
	C623.121765,117.931839 622.111145,111.200287 622.011353,104.335869 
	C621.965454,101.179749 622.073669,98.021400 622.139648,94.404663 
z"/>
<path fill="#FDFDFD" opacity="1.000000" stroke="none" 
	d="
M747.214233,382.563171 
	C742.439819,368.878723 742.744873,355.386597 746.350098,341.991119 
	C748.701660,333.253387 755.099792,328.371613 763.121216,328.053528 
	C771.210876,327.732727 777.653687,331.911499 780.967651,340.551544 
	C786.351379,354.587677 785.945801,368.906433 781.304443,383.010315 
	C778.883362,390.367523 773.565125,394.782074 765.395569,395.129730 
	C756.319031,395.515991 750.867554,390.692413 747.214233,382.563171 
z"/>
<path fill="#FDFDFD" opacity="1.000000" stroke="none" 
	d="
M493.942749,390.066376 
	C484.566833,378.210938 485.420013,364.688629 486.401611,351.200623 
	C486.664917,347.582123 487.525757,344.005432 488.848907,340.563263 
	C491.740662,333.040222 496.886414,328.474823 505.153015,328.069855 
	C512.894897,327.690582 519.443604,331.721863 522.613708,339.662598 
	C528.390747,354.133270 528.398865,369.012726 522.998108,383.468933 
	C518.211060,396.282288 504.812897,399.111206 493.942749,390.066376 
z"/>
<path fill="#FDFDFD" opacity="1.000000" stroke="none" 
	d="
M1063.932983,72.908142 
	C1075.606934,64.195740 1088.123169,67.316620 1093.314453,80.550003 
	C1098.921631,94.843323 1098.543091,109.508850 1093.310913,123.886681 
	C1090.764160,130.885117 1085.478027,134.777328 1077.797241,135.132187 
	C1069.683594,135.507034 1064.087280,131.700348 1060.661499,124.672485 
	C1055.755859,114.609016 1055.496948,103.856476 1056.606934,92.980141 
	C1057.339111,85.805702 1058.674561,78.833229 1063.932983,72.908142 
z"/>
<path fill="#F6F6F6" opacity="1.000000" stroke="none" 
	d="
M1761.296509,348.377014 
	C1750.913452,348.587738 1740.930176,348.460785 1730.955688,348.697418 
	C1727.367920,348.782532 1726.812500,347.763000 1727.664551,344.459167 
	C1728.622925,340.743439 1729.526001,337.041992 1731.475342,333.731812 
	C1737.566772,323.387817 1751.328003,323.021637 1757.840942,333.084015 
	C1760.781128,337.626801 1762.298706,342.668610 1761.296509,348.377014 
z"/>
</svg>